_________________________  Visit us at _________________________
  
http://p2pdl.com  ____________________________  http://p2pdl.com


Hansel and Gretel Witch Hunters 2013 BRRip 480p x264 - VYTO


Genre: Action | Fantasy | Horror
Plot: In this spin on the fairy tale, Hansel & Gretel are now bounty hunters who track and kill
witches all over the world. As the fabled Blood Moon approaches, the siblings encounter a new form
of evil that might hold a secret to their past. 
Director: Tommy Wirkola
Stars: Jeremy Renner, Gemma Arterton, Famke Janssen.
Rated: R for strong fantasy horror violence and gore, brief sexuality/nudity and language.


Info: 
http://www.imdb.com/title/tt1428538/

Trailer:


Format                         : MPEG-4
File size                      : 310 MiB
Duration                       : 1h 37mn
Overall bit rate mode          : Variable
Overall bit rate               : 442 Kbps
Source                         : Extended.Version.720p.BluRay.x264-ANGELiC

Video
Format                         : AVC
Duration                       : 1h 37mn
Bit rate                       : 399 Kbps
Width                          : 720 pixels
Height                         : 304 pixels
Display aspect ratio           : 2.35:1
Frame rate mode                : Constant
Frame rate                     : 23.976 fps
Stream size                    : 279 MiB (90%)
Writing library                : x264 core 130 r2273

Audio
Format                         : AAC
Duration                       : 1h 37mn
Bit rate mode                  : Variable
Bit rate                       : 40.0 Kbps
Channel(s)                     : 2 channels
Channel positions              : Front: L R
Sampling rate                  : 44.1 KHz
Stream size                    : 28.0 MiB (9%)
Language                       : English

Subtitle                       : Yes(English)
 
http://www.ultraimg.com/images/MoxTZ.png 
http://www.ultraimg.com/images/c7035.png 
http://www.ultraimg.com/images/E1XTA.png 
http://www.ultraimg.com/images/4Xrux.png 
http://www.ultraimg.com/images/gj95q.png


----------------------------------------------------------------------------------------------------


Encoded using revolutionary 10bit encoding, which enables us to provide you more crispier 
and sharper images at small sizes, just make sure you follow our instructions without a fault.
Recommend to you to use latest version of VLC player. Install K-Lite Codec Pack or shark007 codecs
in case of any kind of problem in playback (For non-VLC Media Player users). Alternatively, install
Core AVC codecs, the fastest decoder that there is coupled with Community Center Codec Pack and play
on Windows Media Player Classic. Check sample to be sure.
Enjoy!

Encoder Notes:Looking For Early Access To Anything You Can Provide DVDScr, R5, DVDR, BluRay, Direct
Audio, Music Releases and Seedboxes. We require dedicated servers, so as to do more 
and fast releases of movies.
If You Got anything to offer please contact us at "contact@p2pdl.com".

Face book Fan Page:   
http://www.fb.me/p2pdl